<?xml version="1.0" encoding="iso-8859-1"?>
<!-- Generator: Adobe Illustrator 19.0.0, SVG Export Plug-In . SVG Version: 6.00 Build 0)  -->
<svg version="1.1" id="Layer_1" xmlns="http://www.w3.org/2000/svg" xmlns:xlink="http://www.w3.org/1999/xlink" x="0px" y="0px"
	 viewBox="0 0 300.3 300.3" style="enable-background:new 0 0 300.3 300.3;" xml:space="preserve">
<g>
	<g>
		<path d="M286.65,95.548H191.1v-68.25c0-7.538-6.112-13.65-13.65-13.65h-54.6c-7.538,0-13.65,6.112-13.65,13.65v68.25H13.65
			c-7.538,0-13.65,6.112-13.65,13.65v54.6c0,7.538,6.112,13.65,13.65,13.65h16l24.716,98.865
			c1.519,6.076,6.979,10.339,13.242,10.339h163.8c6.264,0,11.724-4.263,13.242-10.339l24.717-98.865h17.283
			c7.538,0,13.65-6.112,13.65-13.65v-54.6C300.3,101.658,294.188,95.548,286.65,95.548z M136.5,109.198v-68.25h27.3v68.25v40.95
			h-27.3V109.198z M27.3,150.148v-27.3h81.9v27.3H27.3z M220.751,259.351H78.265L57.79,177.447h65.06h54.6h63.777L220.751,259.351z
			 M273,150.148h-81.9v-27.3H273V150.148z"/>
	</g>
</g>
<g>
</g>
<g>
</g>
<g>
</g>
<g>
</g>
<g>
</g>
<g>
</g>
<g>
</g>
<g>
</g>
<g>
</g>
<g>
</g>
<g>
</g>
<g>
</g>
<g>
</g>
<g>
</g>
<g>
</g>
</svg>
